<?xml version="1.0" encoding="UTF-8"?>
<svg width="126px" height="16px" viewBox="0 0 126 16" version="1.1" xmlns="http://www.w3.org/2000/svg" xmlns:xlink="http://www.w3.org/1999/xlink">
    <!-- Generator: Sketch 64 (93537) - https://sketch.com -->
    <title>+medCabinet</title>
    <desc>Created with Sketch.</desc>
    <g id="Page-1" stroke="none" stroke-width="1" fill="none" fill-rule="evenodd">
        <g id="+medCabinet" transform="translate(0.080000, 0.100000)" fill-rule="nonzero">
            <path d="M5.42,14.1 L5.42,9.68 L9.84,9.68 L9.84,8.66 L5.42,8.66 L5.42,4.24 L4.42,4.24 L4.42,8.66 L4.54747351e-13,8.66 L4.54747351e-13,9.68 L4.42,9.68 L4.42,14.1 L5.42,14.1 Z M13.8,14.9 L13.8,9.12 C13.8,8.06666667 14.0633333,7.23333333 14.59,6.62 C15.1166667,6.00666667 15.84,5.7 16.76,5.7 C17.5466667,5.7 18.1233333,5.93333333 18.49,6.4 C18.8566667,6.86666667 19.04,7.6 19.04,8.6 L19.04,8.6 L19.04,14.9 L20.26,14.9 L20.26,9.12 C20.26,8.06666667 20.5266667,7.23333333 21.06,6.62 C21.5933333,6.00666667 22.3133333,5.7 23.22,5.7 C24.0066667,5.7 24.58,5.93333333 24.94,6.4 C25.3,6.86666667 25.48,7.6 25.48,8.6 L25.48,8.6 L25.48,14.9 L26.7,14.9 L26.7,8.52 C26.7,7.21333333 26.42,6.24 25.86,5.6 C25.3,4.96 24.4733333,4.64 23.38,4.64 C22.4466667,4.64 21.6533333,4.88666667 21,5.38 C20.5842424,5.69393939 20.2656749,6.07807163 20.0442975,6.53239669 L20.009,6.61 L20.0019835,6.58413223 C19.8439669,6.14644628 19.627438,5.78413223 19.3523967,5.49719008 L19.21,5.36 C18.67,4.88 17.9066667,4.64 16.92,4.64 C16.1066667,4.64 15.4,4.85666667 14.8,5.29 C14.38,5.59333333 14.0514667,5.99303333 13.8144,6.4891 L13.734,6.672 L13.58,4.88 L12.42,4.88 C12.4866667,5.33333333 12.53,5.79666667 12.55,6.27 C12.57,6.74333333 12.58,7.20666667 12.58,7.66 L12.58,7.66 L12.58,14.9 L13.8,14.9 Z M34.2451294,15.04 C34.9651294,15.04 35.6651294,14.9166667 36.3451294,14.67 C37.0251294,14.4233333 37.5784627,14.0866667 38.0051294,13.66 L38.0051294,13.66 L37.5451294,12.72 C37.0251294,13.1466667 36.4951294,13.46 35.9551294,13.66 C35.4151294,13.86 34.8384627,13.96 34.2251294,13.96 C33.0517961,13.96 32.1551294,13.6066667 31.5351294,12.9 C30.9151294,12.1933333 30.6051294,11.16 30.6051294,9.8 L30.6051294,9.8 L30.606,9.74 L38.1851294,9.74 L38.1851294,9.48 C38.1851294,8.45333333 38.0184627,7.58 37.6851294,6.86 C37.3517961,6.14 36.8717961,5.59 36.2451294,5.21 C35.6184627,4.83 34.8717961,4.64 34.0051294,4.64 C33.0851294,4.64 32.2717961,4.85666667 31.5651294,5.29 C30.8584627,5.72333333 30.3084627,6.33333333 29.9151294,7.12 C29.5217961,7.90666667 29.3251294,8.82 29.3251294,9.86 C29.3251294,10.94 29.5251294,11.8666667 29.9251294,12.64 C30.3251294,13.4133333 30.8917961,14.0066667 31.6251294,14.42 C32.3584627,14.8333333 33.2317961,15.04 34.2451294,15.04 Z M37.05,8.82 L30.672,8.82 L30.6912832,8.68473373 C30.806155,7.99360947 31.0358986,7.40725838 31.380514,6.92568047 L31.5151294,6.75 C32.1217961,6.01 32.9517961,5.64 34.0051294,5.64 C35.0317961,5.64 35.8084627,5.98 36.3351294,6.66 C36.7402576,7.18307692 36.9777329,7.88366864 37.0475554,8.76177515 L37.05,8.82 Z M44.6343604,15.04 C45.581027,15.04 46.3776937,14.8033333 47.0243604,14.33 C47.4358755,14.0287879 47.7623493,13.6452342 48.0037818,13.1793388 L48.094,12.992 L48.0943604,14.9 L49.3143604,14.9 L49.3143604,0.18 L48.0943604,0.18 L48.094,6.682 L48.0736604,6.6331 C47.8620604,6.1839 47.5748604,5.8055 47.2120604,5.4979 L47.0243604,5.35 C46.3776937,4.87666667 45.581027,4.64 44.6343604,4.64 C43.741027,4.64 42.9576937,4.85 42.2843604,5.27 C41.611027,5.69 41.091027,6.28666667 40.7243604,7.06 C40.3576937,7.83333333 40.1743604,8.74666667 40.1743604,9.8 C40.1743604,10.8533333 40.361027,11.7733333 40.7343604,12.56 C41.1076937,13.3466667 41.631027,13.9566667 42.3043604,14.39 C42.9776937,14.8233333 43.7543604,15.04 44.6343604,15.04 Z M44.7943604,13.96 C43.741027,13.96 42.9176937,13.5933333 42.3243604,12.86 C41.731027,12.1266667 41.4343604,11.1066667 41.4343604,9.8 C41.4343604,8.49333333 41.731027,7.48666667 42.3243604,6.78 C42.9176937,6.07333333 43.741027,5.72 44.7943604,5.72 C45.861027,5.72 46.6776937,6.07666667 47.2443604,6.79 C47.811027,7.50333333 48.0943604,8.52 48.0943604,9.84 C48.0943604,11.1466667 47.8076937,12.16 47.2343604,12.88 C46.661027,13.6 45.8476937,13.96 44.7943604,13.96 Z" id="+med" fill="#6C63FF"></path>
            <path d="M59.0800024,15.08 C60.0266691,15.08 60.9266691,14.9366667 61.7800024,14.65 C62.6333358,14.3633333 63.3400024,13.96 63.9000024,13.44 L63.9000024,13.44 L62.9200024,11.2 C62.2800024,11.68 61.6566691,12.03 61.0500024,12.25 C60.4433358,12.47 59.8066691,12.58 59.1400024,12.58 C57.8733358,12.58 56.8933358,12.17 56.2000024,11.35 C55.5066691,10.53 55.1600024,9.33333333 55.1600024,7.76 C55.1600024,6.18666667 55.5066691,4.99666667 56.2000024,4.19 C56.8933358,3.38333333 57.8733358,2.98 59.1400024,2.98 C59.8066691,2.98 60.4433358,3.09 61.0500024,3.31 C61.6566691,3.53 62.2800024,3.88 62.9200024,4.36 L62.9200024,4.36 L63.9000024,2.12 C63.3400024,1.6 62.6333358,1.19666667 61.7800024,0.91 C60.9266691,0.623333333 60.0266691,0.48 59.0800024,0.48 C57.6266691,0.48 56.3666691,0.78 55.3000024,1.38 C54.2333358,1.98 53.4133358,2.82666667 52.8400024,3.92 C52.2666691,5.01333333 51.9800024,6.29333333 51.9800024,7.76 C51.9800024,9.24 52.2666691,10.53 52.8400024,11.63 C53.4133358,12.73 54.2333358,13.58 55.3000024,14.18 C56.3666691,14.78 57.6266691,15.08 59.0800024,15.08 Z M69.6740027,15.06 C70.487336,15.06 71.207336,14.8666667 71.8340027,14.48 C72.2726694,14.2093333 72.613336,13.8635333 72.8560027,13.4426 L72.874,13.409 L72.8740027,14.9 L75.8540027,14.9 L75.8540027,4.76 L72.8740027,4.76 L72.874,6.183 L72.8206694,6.08666667 C72.6206694,5.76074074 72.358941,5.47802469 72.0354842,5.23851852 L71.8340027,5.1 C71.207336,4.7 70.487336,4.5 69.6740027,4.5 C68.7940027,4.5 68.017336,4.72333333 67.3440027,5.17 C66.6706694,5.61666667 66.1440027,6.24333333 65.7640027,7.05 C65.3840027,7.85666667 65.1940027,8.78666667 65.1940027,9.84 C65.1940027,10.8933333 65.3806694,11.8133333 65.7540027,12.6 C66.127336,13.3866667 66.6540027,13.9933333 67.3340027,14.42 C68.0140027,14.8466667 68.7940027,15.06 69.6740027,15.06 Z M70.5540027,12.76 C69.7940027,12.76 69.2106694,12.51 68.8040027,12.01 C68.397336,11.51 68.1940027,10.7866667 68.1940027,9.84 C68.1940027,8.89333333 68.4040027,8.15333333 68.8240027,7.62 C69.2440027,7.08666667 69.8206694,6.82 70.5540027,6.82 C71.287336,6.82 71.857336,7.07666667 72.2640027,7.59 C72.6706694,8.10333333 72.8740027,8.84 72.8740027,9.8 C72.8740027,10.76 72.6706694,11.4933333 72.2640027,12 C71.857336,12.5066667 71.287336,12.76 70.5540027,12.76 Z M84.4960132,15.06 C85.3760132,15.06 86.1526799,14.8366667 86.8260132,14.39 C87.4993465,13.9433333 88.0293465,13.3233333 88.4160132,12.53 C88.8026799,11.7366667 88.9960132,10.8066667 88.9960132,9.74 C88.9960132,8.68666667 88.8026799,7.76666667 88.4160132,6.98 C88.0293465,6.19333333 87.4993465,5.58333333 86.8260132,5.15 C86.1526799,4.71666667 85.3760132,4.5 84.4960132,4.5 C83.6693465,4.5 82.9460132,4.70333333 82.3260132,5.11 C81.9126799,5.38111111 81.5897169,5.71 81.3571243,6.09666667 L81.316,6.171 L81.3160132,0.18 L78.2960132,0.18 L78.2960132,14.9 L81.2960132,14.9 L81.296,13.392 L81.3229132,13.4426 C81.5241132,13.8034 81.7985132,14.109 82.1461132,14.3594 L82.3260132,14.48 C82.9460132,14.8666667 83.6693465,15.06 84.4960132,15.06 Z M83.6360132,12.76 C82.8760132,12.76 82.2960132,12.5066667 81.8960132,12 C81.4960132,11.4933333 81.2960132,10.7533333 81.2960132,9.78 C81.2960132,8.84666667 81.4960132,8.12 81.8960132,7.6 C82.2960132,7.08 82.8760132,6.82 83.6360132,6.82 C84.3826799,6.82 84.9560132,7.07333333 85.3560132,7.58 C85.7560132,8.08666667 85.9560132,8.80666667 85.9560132,9.74 C85.9560132,10.7133333 85.7526799,11.46 85.3460132,11.98 C84.9393465,12.5 84.3693465,12.76 83.6360132,12.76 Z M94.0660242,2.84 L94.0660242,0 L90.8060242,0 L90.8060242,2.84 L94.0660242,2.84 Z M93.9460242,14.9 L93.9460242,4.76 L90.9260242,4.76 L90.9260242,14.9 L93.9460242,14.9 Z M99.4200366,14.9 L99.4200366,9.22 C99.4200366,8.5 99.6200366,7.92666667 100.020037,7.5 C100.420037,7.07333333 100.95337,6.86 101.620037,6.86 C102.180037,6.86 102.590037,7.02 102.850037,7.34 C103.110037,7.66 103.240037,8.18 103.240037,8.9 L103.240037,8.9 L103.240037,14.9 L106.260037,14.9 L106.260037,8.76 C106.260037,5.92 105.066703,4.5 102.680037,4.5 C101.866703,4.5 101.150037,4.69 100.530037,5.07 C100.047814,5.36555556 99.6482671,5.76395062 99.3313946,6.26518519 L99.261,6.385 L99.0800366,4.76 L96.2400366,4.76 C96.3067033,5.24 96.3500366,5.72333333 96.3700366,6.21 C96.3900366,6.69666667 96.4000366,7.18 96.4000366,7.66 L96.4000366,7.66 L96.4000366,14.9 L99.4200366,14.9 Z M113.626046,15.06 C114.346046,15.06 115.059379,14.95 115.766046,14.73 C116.472713,14.51 117.072713,14.2066667 117.566046,13.82 L117.566046,13.82 L116.766046,11.78 C116.326046,12.1 115.846046,12.3466667 115.326046,12.52 C114.806046,12.6933333 114.279379,12.78 113.746046,12.78 C112.826046,12.78 112.142713,12.5266667 111.696046,12.02 C111.352456,11.6302564 111.141017,11.0551085 111.061727,10.2945562 L111.043,10.08 L117.746046,10.08 L117.746046,9.64 C117.746046,8.58666667 117.559379,7.67666667 117.186046,6.91 C116.812713,6.14333333 116.279379,5.55 115.586046,5.13 C114.892713,4.71 114.072713,4.5 113.126046,4.5 C112.139379,4.5 111.276046,4.72333333 110.536046,5.17 C109.796046,5.61666667 109.212713,6.24 108.786046,7.04 C108.359379,7.84 108.146046,8.76 108.146046,9.8 C108.146046,10.88 108.366046,11.8133333 108.806046,12.6 C109.246046,13.3866667 109.876046,13.9933333 110.696046,14.42 C111.516046,14.8466667 112.492713,15.06 113.626046,15.06 Z M115.139,8.58 L111.106,8.58 L111.143815,8.39347107 C111.222327,8.05214876 111.340096,7.75834711 111.497121,7.51206612 L111.596046,7.37 C111.976046,6.87 112.512713,6.62 113.206046,6.62 C113.846046,6.62 114.336046,6.83666667 114.676046,7.27 C114.914046,7.57333333 115.065479,7.97956667 115.130346,8.4887 L115.139,8.58 Z M124.112048,15.06 C124.432048,15.06 124.732048,15.04 125.012048,15 C125.292048,14.96 125.572048,14.8866667 125.852048,14.78 L125.852048,14.78 L125.852048,12.46 C125.652048,12.5 125.475382,12.53 125.322048,12.55 C125.168715,12.57 125.012048,12.58 124.852048,12.58 C124.572048,12.58 124.312048,12.53 124.072048,12.43 C123.832048,12.33 123.638715,12.16 123.492048,11.92 C123.345382,11.68 123.272048,11.36 123.272048,10.96 L123.272048,10.96 L123.272,7.021 L125.852048,7.02 L125.852048,4.76 L123.272,4.76 L123.272048,1.4 L120.252048,2.38 L120.252,4.76 L118.332048,4.76 L118.332048,7.02 L120.252,7.021 L120.252048,11.02 C120.252048,12.1961905 120.536589,13.1338265 121.105671,13.8329082 L121.242048,13.99 C121.902048,14.7033333 122.858715,15.06 124.112048,15.06 Z" id="Cabinet" fill="#444444"></path>
        </g>
    </g>
</svg>