<?xml version="1.0" encoding="UTF-8"?>
<svg width="203px" height="25px" viewBox="0 0 203 25" version="1.1" xmlns="http://www.w3.org/2000/svg" xmlns:xlink="http://www.w3.org/1999/xlink">
    <!-- Generator: Sketch 64 (93537) - https://sketch.com -->
    <title>+medCabinet</title>
    <desc>Created with Sketch.</desc>
    <g id="Page-1" stroke="none" stroke-width="1" fill="none" fill-rule="evenodd">
        <g id="+medCabinet" transform="translate(0.728000, 0.160000)" fill-rule="nonzero">
            <path d="M8.672,22.56 L8.672,15.488 L15.744,15.488 L15.744,13.856 L8.672,13.856 L8.672,6.784 L7.072,6.784 L7.072,13.856 L0,13.856 L0,15.488 L7.072,15.488 L7.072,22.56 L8.672,22.56 Z M22.08,23.84 L22.08,14.592 C22.08,12.9066667 22.5013333,11.5733333 23.344,10.592 C24.1866667,9.61066667 25.344,9.12 26.816,9.12 C28.0746667,9.12 28.9973333,9.49333333 29.584,10.24 C30.1706667,10.9866667 30.464,12.16 30.464,13.76 L30.464,13.76 L30.464,23.84 L32.416,23.84 L32.416,14.592 C32.416,12.9066667 32.8426667,11.5733333 33.696,10.592 C34.5493333,9.61066667 35.7013333,9.12 37.152,9.12 C38.4106667,9.12 39.328,9.49333333 39.904,10.24 C40.48,10.9866667 40.768,12.16 40.768,13.76 L40.768,13.76 L40.768,23.84 L42.72,23.84 L42.72,13.632 C42.72,11.5413333 42.272,9.984 41.376,8.96 C40.48,7.936 39.1573333,7.424 37.408,7.424 C35.9146667,7.424 34.6453333,7.81866667 33.6,8.608 C32.928,9.11542857 32.4146939,9.73746939 32.0600816,10.4741224 L32.015,10.574 L31.95136,10.39616 C31.6919467,9.72714667 31.3430281,9.17342815 30.9046044,8.73500444 L30.736,8.576 C29.872,7.808 28.6506667,7.424 27.072,7.424 C25.7706667,7.424 24.64,7.77066667 23.68,8.464 C22.9942857,8.9592381 22.4609524,9.61502041 22.08,10.4313469 L21.974,10.674 L21.728,7.808 L19.872,7.808 C19.9786667,8.53333333 20.048,9.27466667 20.08,10.032 C20.112,10.7893333 20.128,11.5306667 20.128,12.256 L20.128,12.256 L20.128,23.84 L22.08,23.84 Z M54.792207,24.064 C55.944207,24.064 57.064207,23.8666667 58.152207,23.472 C59.240207,23.0773333 60.1255404,22.5386667 60.808207,21.856 L60.808207,21.856 L60.072207,20.352 C59.240207,21.0346667 58.392207,21.536 57.528207,21.856 C56.664207,22.176 55.7415404,22.336 54.760207,22.336 C52.8828737,22.336 51.448207,21.7706667 50.456207,20.64 C49.464207,19.5093333 48.968207,17.856 48.968207,15.68 L48.968207,15.68 L48.969,15.584 L61.096207,15.584 L61.096207,15.168 C61.096207,13.5253333 60.8295404,12.128 60.296207,10.976 C59.7628737,9.824 58.9948737,8.944 57.992207,8.336 C56.9895404,7.728 55.7948737,7.424 54.408207,7.424 C52.936207,7.424 51.6348737,7.77066667 50.504207,8.464 C49.3735404,9.15733333 48.4935404,10.1333333 47.864207,11.392 C47.2348737,12.6506667 46.920207,14.112 46.920207,15.776 C46.920207,17.504 47.240207,18.9866667 47.880207,20.224 C48.520207,21.4613333 49.4268737,22.4106667 50.600207,23.072 C51.7735404,23.7333333 53.1708737,24.064 54.792207,24.064 Z M59.282,14.112 L49.074,14.112 L49.0941586,13.9689965 C49.2788875,12.7985052 49.6668183,11.8133518 50.257951,11.0135363 L50.424207,10.8 C51.3948737,9.616 52.7228737,9.024 54.408207,9.024 C56.0508737,9.024 57.2935404,9.568 58.136207,10.656 C58.7805992,11.488 59.1598933,12.600692 59.2740894,13.9940761 L59.282,14.112 Z M71.4149766,24.064 C72.9296432,24.064 74.2043099,23.6853333 75.2389766,22.928 C75.9780242,22.3870476 76.5456432,21.6801088 76.9418337,20.8071837 L76.95,20.787 L76.9509766,23.84 L78.9029766,23.84 L78.9029766,0.288 L76.9509766,0.288 L76.95,10.686 L76.9418337,10.6644898 C76.5852623,9.88865306 76.0898337,9.24285714 75.455548,8.72710204 L75.2389766,8.56 C74.2043099,7.80266667 72.9296432,7.424 71.4149766,7.424 C69.9856432,7.424 68.7323099,7.76 67.6549766,8.432 C66.5776432,9.104 65.7456432,10.0586667 65.1589766,11.296 C64.5723099,12.5333333 64.2789766,13.9946667 64.2789766,15.68 C64.2789766,17.3653333 64.5776432,18.8373333 65.1749766,20.096 C65.7723099,21.3546667 66.6096432,22.3306667 67.6869766,23.024 C68.7643099,23.7173333 70.0069766,24.064 71.4149766,24.064 Z M71.6709766,22.336 C69.9856432,22.336 68.6683099,21.7493333 67.7189766,20.576 C66.7696432,19.4026667 66.2949766,17.7706667 66.2949766,15.68 C66.2949766,13.5893333 66.7696432,11.9786667 67.7189766,10.848 C68.6683099,9.71733333 69.9856432,9.152 71.6709766,9.152 C73.3776432,9.152 74.6843099,9.72266667 75.5909766,10.864 C76.4976432,12.0053333 76.9509766,13.632 76.9509766,15.744 C76.9509766,17.8346667 76.4923099,19.456 75.5749766,20.608 C74.6576432,21.76 73.3563099,22.336 71.6709766,22.336 Z" id="+med" fill="#6C63FF"></path>
            <path d="M94.5280039,24.128 C96.0426706,24.128 97.4826706,23.8986667 98.8480039,23.44 C100.213337,22.9813333 101.344004,22.336 102.240004,21.504 L102.240004,21.504 L100.672004,17.92 C99.6480039,18.688 98.6506706,19.248 97.6800039,19.6 C96.7093372,19.952 95.6906706,20.128 94.6240039,20.128 C92.5973372,20.128 91.0293372,19.472 89.9200039,18.16 C88.8106706,16.848 88.2560039,14.9333333 88.2560039,12.416 C88.2560039,9.89866667 88.8106706,7.99466667 89.9200039,6.704 C91.0293372,5.41333333 92.5973372,4.768 94.6240039,4.768 C95.6906706,4.768 96.7093372,4.944 97.6800039,5.296 C98.6506706,5.648 99.6480039,6.208 100.672004,6.976 L100.672004,6.976 L102.240004,3.392 C101.344004,2.56 100.213337,1.91466667 98.8480039,1.456 C97.4826706,0.997333333 96.0426706,0.768 94.5280039,0.768 C92.2026706,0.768 90.1866706,1.248 88.4800039,2.208 C86.7733372,3.168 85.4613372,4.52266667 84.5440039,6.272 C83.6266706,8.02133333 83.1680039,10.0693333 83.1680039,12.416 C83.1680039,14.784 83.6266706,16.848 84.5440039,18.608 C85.4613372,20.368 86.7733372,21.728 88.4800039,22.688 C90.1866706,23.648 92.2026706,24.128 94.5280039,24.128 Z M111.798404,24.096 C113.099738,24.096 114.251738,23.7866667 115.254404,23.168 C115.948558,22.7396923 116.489339,22.1937988 116.876747,21.5303195 L116.918,21.454 L116.918404,23.84 L121.686404,23.84 L121.686404,7.616 L116.918404,7.616 L116.918,9.888 L116.876747,9.81131361 C116.532385,9.22660355 116.066838,8.72672189 115.480108,8.31166864 L115.254404,8.16 C114.251738,7.52 113.099738,7.2 111.798404,7.2 C110.390404,7.2 109.147738,7.55733333 108.070404,8.272 C106.993071,8.98666667 106.150404,9.98933333 105.542404,11.28 C104.934404,12.5706667 104.630404,14.0586667 104.630404,15.744 C104.630404,17.4293333 104.929071,18.9013333 105.526404,20.16 C106.123738,21.4186667 106.966404,22.3893333 108.054404,23.072 C109.142404,23.7546667 110.390404,24.096 111.798404,24.096 Z M113.206404,20.416 C111.990404,20.416 111.057071,20.016 110.406404,19.216 C109.755738,18.416 109.430404,17.2586667 109.430404,15.744 C109.430404,14.2293333 109.766404,13.0453333 110.438404,12.192 C111.110404,11.3386667 112.033071,10.912 113.206404,10.912 C114.379738,10.912 115.291738,11.3226667 115.942404,12.144 C116.593071,12.9653333 116.918404,14.144 116.918404,15.68 C116.918404,17.216 116.593071,18.3893333 115.942404,19.2 C115.291738,20.0106667 114.379738,20.416 113.206404,20.416 Z M135.513621,24.096 C136.921621,24.096 138.164288,23.7386667 139.241621,23.024 C140.318954,22.3093333 141.166954,21.3173333 141.785621,20.048 C142.404288,18.7786667 142.713621,17.2906667 142.713621,15.584 C142.713621,13.8986667 142.404288,12.4266667 141.785621,11.168 C141.166954,9.90933333 140.318954,8.93333333 139.241621,8.24 C138.164288,7.54666667 136.921621,7.2 135.513621,7.2 C134.190954,7.2 133.033621,7.52533333 132.041621,8.176 C131.354852,8.62646154 130.824012,9.17661538 130.4491,9.82646154 L130.425,9.871 L130.425621,0.288 L125.593621,0.288 L125.593621,23.84 L130.393621,23.84 L130.393,21.426 L130.4491,21.5303195 C130.782355,22.1200789 131.238812,22.616931 131.818473,23.0208757 L132.041621,23.168 C133.033621,23.7866667 134.190954,24.096 135.513621,24.096 Z M134.137621,20.416 C132.921621,20.416 131.993621,20.0106667 131.353621,19.2 C130.713621,18.3893333 130.393621,17.2053333 130.393621,15.648 C130.393621,14.1546667 130.713621,12.992 131.353621,12.16 C131.993621,11.328 132.921621,10.912 134.137621,10.912 C135.332288,10.912 136.249621,11.3173333 136.889621,12.128 C137.529621,12.9386667 137.849621,14.0906667 137.849621,15.584 C137.849621,17.1413333 137.524288,18.336 136.873621,19.168 C136.222954,20 135.310954,20.416 134.137621,20.416 Z M150.825639,4.544 L150.825639,0 L145.609639,0 L145.609639,4.544 L150.825639,4.544 Z M150.633639,23.84 L150.633639,7.616 L145.801639,7.616 L145.801639,23.84 L150.633639,23.84 Z M159.392059,23.84 L159.392059,14.752 C159.392059,13.6 159.712059,12.6826667 160.352059,12 C160.992059,11.3173333 161.845392,10.976 162.912059,10.976 C163.808059,10.976 164.464059,11.232 164.880059,11.744 C165.296059,12.256 165.504059,13.088 165.504059,14.24 L165.504059,14.24 L165.504059,23.84 L170.336059,23.84 L170.336059,14.016 C170.336059,9.472 168.426725,7.2 164.608059,7.2 C163.306725,7.2 162.160059,7.504 161.168059,8.112 C160.341392,8.61866667 159.666577,9.31422222 159.143614,10.1986667 L159.136,10.211 L158.848059,7.616 L154.304059,7.616 C154.410725,8.384 154.480059,9.15733333 154.512059,9.936 C154.544059,10.7146667 154.560059,11.488 154.560059,12.256 L154.560059,12.256 L154.560059,23.84 L159.392059,23.84 Z M182.121674,24.096 C183.273674,24.096 184.415007,23.92 185.545674,23.568 C186.67634,23.216 187.63634,22.7306667 188.425674,22.112 L188.425674,22.112 L187.145674,18.848 C186.441674,19.36 185.673674,19.7546667 184.841674,20.032 C184.009674,20.3093333 183.167007,20.448 182.313674,20.448 C180.841674,20.448 179.74834,20.0426667 179.033674,19.232 C178.453007,18.5733333 178.108236,17.5837083 177.999361,16.263125 L177.99,16.128 L188.713674,16.128 L188.713674,15.424 C188.713674,13.7386667 188.415007,12.2826667 187.817674,11.056 C187.22034,9.82933333 186.367007,8.88 185.257674,8.208 C184.14834,7.536 182.83634,7.2 181.321674,7.2 C179.743007,7.2 178.361674,7.55733333 177.177674,8.272 C175.993674,8.98666667 175.06034,9.984 174.377674,11.264 C173.695007,12.544 173.353674,14.016 173.353674,15.68 C173.353674,17.408 173.705674,18.9013333 174.409674,20.16 C175.113674,21.4186667 176.121674,22.3893333 177.433674,23.072 C178.745674,23.7546667 180.30834,24.096 182.121674,24.096 Z M184.544,13.728 L178.09,13.728 L178.107594,13.62944 C178.2373,12.9672533 178.453478,12.4097422 178.756127,11.9569067 L178.873674,11.792 C179.481674,10.992 180.34034,10.592 181.449674,10.592 C182.473674,10.592 183.257674,10.9386667 183.801674,11.632 C184.190245,12.1272381 184.434599,12.7939048 184.534735,13.632 L184.544,13.728 Z M199.187277,24.096 C199.699277,24.096 200.179277,24.064 200.627277,24 C201.075277,23.936 201.523277,23.8186667 201.971277,23.648 L201.971277,23.648 L201.971277,19.936 C201.651277,20 201.368611,20.048 201.123277,20.08 C200.877944,20.112 200.627277,20.128 200.371277,20.128 C199.923277,20.128 199.507277,20.048 199.123277,19.888 C198.739277,19.728 198.429944,19.456 198.195277,19.072 C197.960611,18.688 197.843277,18.176 197.843277,17.536 L197.843277,17.536 L197.843,11.232 L201.971277,11.232 L201.971277,7.616 L197.843,7.616 L197.843277,2.24 L193.011277,3.808 L193.011,7.616 L189.939277,7.616 L189.939277,11.232 L193.011,11.232 L193.011277,17.632 C193.011277,19.539451 193.478987,21.054782 194.414405,22.1779931 L194.595277,22.384 C195.651277,23.5253333 197.181944,24.096 199.187277,24.096 Z" id="Cabinet" fill="#444444"></path>
        </g>
    </g>
</svg>